<?xml version="1.0" encoding="utf-8"?>
<!-- Svg Vector Icons : http://www.onlinewebfonts.com/icon -->
<!DOCTYPE svg PUBLIC "-//W3C//DTD SVG 1.1//EN" "http://www.w3.org/Graphics/SVG/1.1/DTD/svg11.dtd">
<svg version="1.1" xmlns="http://www.w3.org/2000/svg" xmlns:xlink="http://www.w3.org/1999/xlink" x="0px" y="0px" viewBox="0 0 1000 1000" enable-background="new 0 0 1000 1000" xml:space="preserve">
<metadata> Svg Vector Icons : http://www.onlinewebfonts.com/icon </metadata>
<g><g transform="translate(0.000000,511.000000) scale(0.100000,-0.100000)"><path d="M100,1409.9v-2679.7h1237.8h1237.8v140.4c0,76.6,7.7,140.4,20.4,140.4c10.2,2.5,290.9-68.9,625.3-158.2l604.8-158.2l-5.1-461.9l-7.7-459.4l-1153.5-7.7l-1153.5-5.1l-25.5-97c-15.3-51-112.3-416-216.9-809c-104.6-390.5-188.8-714.6-183.8-719.7c2.6-5.1,1367.9-5.1,3029.3-2.5l3024.2,7.6l-216.9,811.6l-216.9,809H5288.4H3877.1v484.9c0,268-5.1,484.9-12.8,484.9c-25.5,0-1245.4,334.3-1265.8,347.1c-30.6,17.9-30.6,163.3-2.6,163.3c79.1,0,1503.2-130.1,1531.2-140.4c23-7.7,30.6-137.8,30.6-523.2v-510.4h2169.3h2169.3l25.5-61.3c12.8-33.2,28.1-99.5,38.3-145.4l15.3-86.8l-158.2-7.7c-188.9-7.6-290.9-58.7-357.3-183.8c-43.4-79.1-48.5-150.6-48.5-612.5c0-587,15.3-650.8,176.1-758c79.1-53.6,114.8-58.7,421.1-58.7c382.8,0,474.7,30.6,556.3,181.2c40.8,76.6,45.9,153.1,45.9,630.4c0,576.8-7.7,625.3-127.6,732.5c-43.4,38.3-104.6,53.6-250.1,63.8l-196.5,12.8l-48.5,173.5l-51,171H6360.3H4183.3l-5.1,518.1l-7.7,515.5l-778.4,68.9c-428.7,35.7-786,68.9-796.3,68.9c-12.8,2.5-20.4,1082.1-20.4,2401.5v2399H1337.8H100V1409.9z M2294.8,3298.4v-280.7h-944.3H406.2v280.7v280.7h944.3h944.3V3298.4z M2499,2583.8c0-51-17.9-51-1148.4-51c-1130.6,0-1148.4,0-1148.4,51c0,51,17.9,51,1148.4,51C2481.1,2634.9,2499,2634.9,2499,2583.8z M2493.8,2081c-7.7-43.4-86.8-45.9-1151-53.6c-1128-5.1-1140.8-5.1-1140.8,45.9s15.3,51,1151,51C2435.2,2124.4,2501.5,2121.9,2493.8,2081z M1860.9,445.2V-774.7l-515.5,2.5H827.3l-7.7,1219.9l-5.1,1217.3h523.2h523.2V445.2z M8904.7-2826.6c171,0,280.7-10.2,280.7-25.5c0-15.3-209.3-25.5-576.8-25.5c-375.2,0-569.1,7.7-558.9,25.5c7.6,15.3,132.7,25.5,283.3,25.5h265.4l5.1,301.2l5.1,298.6l7.7-298.6l10.2-301.2H8904.7z M1733.3-2456.6c0-20.4-17.9-38.3-38.3-38.3c-20.4,0-38.3,17.9-38.3,38.3s17.9,38.3,38.3,38.3C1715.5-2418.3,1733.3-2436.1,1733.3-2456.6z M1937.5-2456.6c0-20.4-23-38.3-51-38.3c-51,0-66.4,28.1-33.2,58.7C1883.9-2403,1937.5-2418.3,1937.5-2456.6z M2167.2-2456.6c0-23-23-38.3-63.8-38.3c-61.2,0-81.7,25.5-45.9,58.7C2088.1-2403,2167.2-2418.3,2167.2-2456.6z M2422.4-2456.6c0-25.5-25.5-38.3-76.6-38.3c-74,0-97,23-58.7,58.7C2320.3-2403,2422.4-2418.3,2422.4-2456.6z M2672.5-2448.9c-12.8-38.3-148-61.2-148-25.5c0,38.3,30.6,56.2,97,56.2C2657.2-2418.3,2677.6-2431,2672.5-2448.9z M2907.3-2456.6c0-25.5-25.5-38.3-76.6-38.3c-56.1,0-71.5,10.2-61.2,38.3c10.2,20.4,43.4,38.3,76.6,38.3C2884.3-2418.3,2907.3-2433.6,2907.3-2456.6z M3162.5-2456.6c0-25.5-25.5-38.3-76.6-38.3c-74,0-97,23-58.7,58.7C3060.4-2403,3162.5-2418.3,3162.5-2456.6z M3394.7-2456.6c0-12.8-30.6-28.1-66.4-33.2c-45.9-5.1-63.8,2.5-63.8,33.2s17.9,38.3,63.8,33.2C3364.1-2428.5,3394.7-2441.2,3394.7-2456.6z M3647.4-2456.6c0-25.5-25.5-38.3-76.6-38.3c-74,0-97,23-58.7,58.7C3545.3-2403,3647.4-2418.3,3647.4-2456.6z M3902.6-2456.6c0-25.5-25.5-38.3-76.6-38.3c-74,0-97,23-58.7,58.7C3800.5-2403,3902.6-2418.3,3902.6-2456.6z M4132.3-2456.6c0-23-23-38.3-63.8-38.3c-40.8,0-63.8,15.3-63.8,38.3s23,38.3,63.8,38.3C4109.3-2418.3,4132.3-2433.6,4132.3-2456.6z M4387.5-2456.6c0-25.5-25.5-38.3-76.6-38.3c-74,0-97,23-58.7,58.7C4285.4-2403,4387.5-2418.3,4387.5-2456.6z M4637.6-2448.9c-12.8-38.3-148-61.2-148-25.5c0,38.3,30.6,56.2,97,56.2C4622.3-2418.3,4642.7-2431,4637.6-2448.9z M4872.4-2456.6c0-25.5-25.5-38.3-76.6-38.3c-56.2,0-71.5,10.2-61.3,38.3c10.2,20.4,43.4,38.3,76.6,38.3C4849.4-2418.3,4872.4-2433.6,4872.4-2456.6z M5127.6-2456.6c0-25.5-25.5-38.3-76.6-38.3c-74,0-97,23-58.7,58.7C5025.5-2403,5127.6-2418.3,5127.6-2456.6z M5382.8-2456.6c0-25.5-25.5-38.3-76.6-38.3c-74,0-97,23-58.7,58.7C5280.7-2403,5382.8-2418.3,5382.8-2456.6z M5561.5-2471.9c0-12.8-17.9-23-38.3-23c-38.3,0-51.1,30.6-23,58.7C5520.6-2415.7,5561.5-2438.7,5561.5-2471.9z M5801.4-2456.6c10.2-28.1-5.1-38.3-61.3-38.3c-51,0-76.6,12.8-76.6,38.3c0,23,23,38.3,61.3,38.3C5758-2418.3,5791.2-2436.1,5801.4-2456.6z M6041.2-2464.2c7.6-25.5-10.2-33.2-61.2-25.5c-38.3,5.1-74,23-81.7,40.8c-7.7,25.5,10.2,33.2,61.2,25.5C5997.9-2428.5,6033.6-2446.3,6041.2-2464.2z M6270.9-2461.7c5.1-20.4-15.3-33.2-56.2-33.2c-43.4,0-66.3,12.8-66.3,40.8C6148.4-2405.5,6253.1-2413.2,6270.9-2461.7z M6551.7-2461.7c5.1-22.9-20.4-33.2-81.7-33.2c-66.3,0-91.9,10.2-91.9,40.8C6378.1-2405.5,6533.8-2413.2,6551.7-2461.7z M1679.7-2673.5c-25.5-66.3-99.5-109.7-99.5-56.2c2.6,68.9,38.3,132.7,79.1,132.7S1702.7-2607.1,1679.7-2673.5z M1889-2665.8c-12.8-48.5-38.3-74-79.1-79.1c-45.9-7.7-53.6,0-40.8,33.2c7.7,23,15.3,58.7,15.3,79.1c0,20.4,25.5,35.7,61.2,35.7C1901.8-2596.9,1904.3-2604.6,1889-2665.8z M2141.7-2607.1c0-7.7-10.2-40.8-25.5-76.6c-17.9-48.5-43.4-66.3-89.3-66.3c-71.5,0-71.5,0-38.3,86.8c17.9,48.5,43.4,66.3,89.3,66.3C2113.6-2596.9,2141.7-2602,2141.7-2607.1z M2371.4-2632.7c0-79.1-33.2-117.4-104.6-117.4c-53.6,0-68.9,10.2-61.2,38.3c7.7,20.4,17.9,56.2,25.5,76.6C2246.3-2586.7,2371.4-2584.2,2371.4-2632.7z M2626.6-2614.8c-2.6-91.9-35.7-135.3-107.2-135.3c-58.7,0-74,10.2-61.3,40.8c7.7,23,15.3,56.1,15.3,76.6c0,23,28.1,35.7,76.6,35.7C2593.4-2596.9,2626.6-2604.6,2626.6-2614.8z M2858.8-2665.8c-12.8-53.6-38.3-74-86.8-79.1c-48.5-5.1-68.9,2.5-68.9,30.6c0,79.1,33.2,117.4,102.1,117.4C2871.6-2596.9,2876.7-2602,2858.8-2665.8z M3111.5-2632.7c0-79.1-33.2-117.4-104.6-117.4c-53.6,0-68.9,10.2-61.3,38.3c7.7,20.4,17.9,56.2,25.5,76.6C2986.4-2586.7,3111.5-2584.2,3111.5-2632.7z M3356.5-2637.7c-7.7-23-15.3-56.2-15.3-76.6c0-23-28.1-35.7-76.6-35.7c-81.7,0-84.2,5.1-61.3,97c12.8,40.9,35.7,56.2,91.9,56.2C3353.9-2596.9,3369.2-2607.1,3356.5-2637.7z M3598.9-2665.8c-12.8-53.6-38.3-74-86.8-79.1c-48.5-5.1-68.9,2.5-68.9,30.6c0,79.1,33.2,117.4,102.1,117.4C3611.7-2596.9,3616.8-2602,3598.9-2665.8z M3851.6-2614.8c-2.6-91.9-35.7-135.3-107.2-135.3c-58.7,0-74,10.2-61.3,40.8c7.7,23,15.3,56.1,15.3,76.6c0,23,28.1,35.7,76.6,35.7C3818.4-2596.9,3851.6-2604.6,3851.6-2614.8z M4106.8-2607.1c0-7.7-10.2-40.8-25.5-76.6c-17.9-48.5-43.4-66.3-89.3-66.3c-68.9,0-71.5,7.7-48.5,97c12.8,40.9,35.7,56.2,89.3,56.2C4073.6-2596.9,4106.8-2602,4106.8-2607.1z M4333.9-2673.5c-20.4-56.2-43.4-76.6-89.3-76.6c-45.9,0-61.2,12.8-61.2,58.7c0,79.1,17.9,94.4,104.6,94.4C4356.9-2596.9,4356.9-2599.5,4333.9-2673.5z M4591.7-2614.8c-2.6-91.9-35.7-135.3-107.2-135.3c-58.7,0-74,10.2-61.2,40.8c7.7,23,15.3,56.1,15.3,76.6c0,23,28.1,35.7,76.6,35.7C4558.5-2596.9,4591.7-2604.6,4591.7-2614.8z M4846.9-2607.1c0-7.7-10.2-40.8-25.5-76.6c-17.9-48.5-43.4-66.3-89.3-66.3c-63.8,0-79.1,33.2-48.5,112.3C4696.3-2602,4846.9-2576.5,4846.9-2607.1z M5079.1-2665.8c-15.3-56.2-35.7-74-99.5-79.1c-63.8-7.7-79.1,0-68.9,30.6c7.7,22.9,17.9,58.7,25.5,79.1c5.1,23,40.8,38.3,86.8,38.3C5091.9-2596.9,5097-2602,5079.1-2665.8z M5334.3-2665.8c-15.3-56.2-35.7-74-99.5-79.1c-63.8-7.7-79.1,0-68.9,30.6c7.7,22.9,17.9,58.7,25.5,79.1c5.1,23,40.8,38.3,86.8,38.3C5347.1-2596.9,5352.2-2602,5334.3-2665.8z M5615-2678.6c17.9-68.9,15.3-71.5-94.4-71.5c-61.3,0-112.3,5.1-112.3,10.2c0,7.6,12.8,43.4,25.5,79.1C5469.6-2566.3,5587-2579.1,5615-2678.6z M5842.2-2614.8c0-12.8,7.7-45.9,15.3-76.6c12.8-51,5.1-58.7-51-58.7c-48.5,0-74,17.9-91.9,66.3c-15.3,35.7-25.5,68.9-25.5,76.6C5689.1-2589.3,5842.2-2596.9,5842.2-2614.8z M6097.4-2632.7c0-20.4,7.6-53.6,15.3-76.6c12.8-33.2-2.5-40.8-63.8-40.8c-43.4,0-79.1,7.7-79.1,20.4c0,10.2-7.6,43.4-15.3,76.6c-15.3,48.5-7.7,56.2,63.8,56.2C6069.3-2596.9,6097.4-2609.7,6097.4-2632.7z M6327.1-2614.8c0-12.8,7.6-45.9,15.3-76.6c12.8-48.5,5.1-58.7-48.5-58.7c-48.5,0-71.4,17.9-91.9,76.6c-25.5,74-23,76.6,51,76.6C6293.9-2596.9,6327.1-2604.6,6327.1-2614.8z M6607.8-2663.3c35.7-89.3,35.7-86.8-61.3-86.8c-56.1,0-91.9,15.3-102.1,40.8c-33.2,84.2-15.3,112.3,61.3,112.3C6567-2596.9,6589.9-2612.2,6607.8-2663.3z M1631.2-2862.3c0-51-56.2-142.9-89.3-142.9c-45.9,0-45.9,2.5-12.8,86.8c12.8,35.7,40.8,66.3,63.8,66.3C1613.4-2852.1,1631.2-2857.2,1631.2-2862.3z M1835.4-2862.3c0-51-56.1-142.9-89.3-142.9c-38.3,0-56.2,102.1-20.4,135.3C1743.5-2849.6,1835.4-2844.5,1835.4-2862.3z M2065.1-2870c-2.6-84.2-38.3-135.3-91.9-135.3c-61.2,0-76.6,35.7-45.9,112.3C1942.6-2852.1,2065.1-2834.3,2065.1-2870z M2297.3-2921c-12.8-53.6-38.3-74-86.8-79.1c-48.5-5.1-68.9,2.5-68.9,30.6c0,79.1,33.2,117.4,102.1,117.4C2310.1-2852.1,2315.2-2857.2,2297.3-2921z M2550-2887.9c0-79.1-33.2-117.4-104.6-117.4c-53.6,0-68.9,10.2-61.2,38.3c7.7,20.4,17.9,56.1,25.5,76.6C2425-2841.9,2550-2839.4,2550-2887.9z M2795-2892.9c-7.7-23-15.3-56.2-15.3-76.6c0-23-28.1-35.7-76.6-35.7c-81.7,0-84.2,5.1-61.3,97c12.8,40.8,35.7,56.2,91.9,56.2C2792.4-2852.1,2807.8-2862.3,2795-2892.9z M3037.5-2921c-12.8-53.6-38.3-74-86.8-79.1c-48.5-5.1-68.9,2.5-68.9,30.6c0,79.1,33.2,117.4,102.1,117.4C3050.2-2852.1,3055.3-2857.2,3037.5-2921z M3290.1-2870c-2.6-89.3-35.7-135.3-104.6-135.3c-84.2,0-81.7,0-48.5,86.8c17.9,48.5,43.4,66.3,89.3,66.3C3262-2852.1,3290.1-2859.8,3290.1-2870z M3545.3-2862.3c0-7.6-10.2-40.8-25.5-76.6c-17.9-48.5-43.4-66.3-89.3-66.3c-68.9,0-71.5,7.6-48.5,97c12.8,40.8,35.7,56.2,89.3,56.2C3512.1-2852.1,3545.3-2857.2,3545.3-2862.3z M3772.4-2928.7c-20.4-56.2-43.4-76.6-89.3-76.6c-61.2,0-76.6,35.7-45.9,112.3c10.2,23,45.9,40.8,89.3,40.8C3795.4-2852.1,3798-2854.7,3772.4-2928.7z M4030.2-2870c-2.6-91.9-35.7-135.3-107.2-135.3c-58.7,0-74,10.2-61.3,40.8c7.7,23,15.3,56.2,15.3,76.6c0,23,28.1,35.7,76.6,35.7C3997-2852.1,4030.2-2859.8,4030.2-2870z M4285.4-2862.3c0-7.6-10.2-40.8-25.5-76.6c-17.9-48.5-43.4-66.3-89.3-66.3c-68.9,0-71.5,7.6-48.5,97c12.8,40.8,35.7,56.2,89.3,56.2C4252.2-2852.1,4285.4-2857.2,4285.4-2862.3z M4515.1-2887.9c0-76.6-33.2-117.4-91.9-117.4c-45.9,0-61.3,12.8-61.3,58.7c0,33.2,7.7,68.9,17.9,76.6C4410.5-2836.8,4515.1-2852.1,4515.1-2887.9z M4770.3-2870c-2.6-91.9-35.7-135.3-107.2-135.3c-58.7,0-74,10.2-61.3,40.8c7.7,23,15.3,56.2,15.3,76.6c0,23,28.1,35.7,76.6,35.7C4737.1-2852.1,4770.3-2859.8,4770.3-2870z M5015.3-2892.9c-7.7-23-15.3-56.2-15.3-76.6c0-23-28.1-35.7-76.6-35.7s-76.6,12.8-76.6,35.7c0,81.7,33.2,117.4,107.2,117.4C5012.8-2852.1,5028.1-2862.3,5015.3-2892.9z M5280.7-2862.3c0-7.6-10.2-40.8-25.5-76.6c-17.9-48.5-43.4-66.3-89.3-66.3c-63.8,0-79.1,33.2-48.5,112.3C5130.1-2857.2,5280.7-2831.7,5280.7-2862.3z M5449.2-2892.9c-7.7-23-15.3-56.2-15.3-76.6c0-20.4-17.9-35.7-38.3-35.7c-20.4,0-38.3,15.3-38.3,35.7c0,66.3,30.6,117.4,68.9,117.4C5451.7-2852.1,5459.4-2867.4,5449.2-2892.9z M5673.8-2892.9c25.5-66.4,17.8-112.3-20.4-112.3c-35.7,0-66.3,53.6-66.3,117.4C5587-2839.4,5653.3-2841.9,5673.8-2892.9z M5918.7-2887.9c0-20.4,7.7-53.6,15.3-76.6c12.8-33.2-2.5-40.8-63.8-40.8c-43.4,0-79.1,7.6-79.1,20.4c0,10.2-7.7,43.4-15.3,76.6c-15.3,48.5-7.7,56.2,63.8,56.2C5890.7-2852.1,5918.7-2864.9,5918.7-2887.9z M6168.8-2933.8c7.7-61.2,0-71.4-53.6-71.4c-48.5,0-71.5,20.4-91.9,79.1c-25.5,76.6-25.5,76.6,56.2,68.9C6148.4-2862.3,6163.7-2877.6,6168.8-2933.8z M6406.2-2933.8c15.3-63.8,12.8-71.4-43.4-71.4c-43.4,0-68.9,20.4-86.8,66.3c-35.7,89.3-33.2,91.9,43.4,81.7C6367.9-2862.3,6393.4-2882.8,6406.2-2933.8z M6669.1-2892.9c33.2-89.3,17.8-114.8-66.4-107.2c-63.8,5.1-84.2,23-99.5,79.1c-17.9,63.8-12.8,68.9,66.3,68.9C6623.1-2852.1,6658.8-2867.4,6669.1-2892.9z M1544.5-3163.5c-7.7-33.2-15.3-66.3-15.3-76.6c0-38.3-76.6-20.4-76.6,15.3c0,66.3,30.6,117.4,68.9,117.4C1549.6-3107.3,1557.2-3122.6,1544.5-3163.5z M1748.6-3163.5c-7.7-33.2-15.3-66.3-15.3-76.6c0-38.3-102.1-20.4-102.1,15.3c0,71.4,33.2,117.4,81.7,117.4C1753.7-3107.3,1761.4-3120.1,1748.6-3163.5z M1988.5-3143.1c0-76.6-33.2-117.4-91.9-117.4c-66.4,0-68.9,7.7-45.9,97C1868.6-3099.7,1988.5-3081.8,1988.5-3143.1z M2243.7-3125.2c-2.6-89.3-35.7-135.3-104.6-135.3c-79.1,0-81.7,5.1-58.7,97c12.8,40.8,35.7,56.2,89.3,56.2C2210.6-3107.3,2243.7-3115,2243.7-3125.2z M2476-3176.2c-12.8-53.6-38.3-74-86.8-79.1c-48.5-5.1-68.9,2.5-68.9,30.6c0,79.1,33.2,117.4,102.1,117.4C2488.7-3107.3,2493.8-3112.5,2476-3176.2z M2728.6-3143.1c0-81.6-33.2-117.4-104.6-117.4c-84.2,0-81.7,0-48.5,86.8c17.9,48.5,43.4,66.3,89.3,66.3C2703.1-3107.3,2728.6-3122.6,2728.6-3143.1z M2983.9-3117.5c0-7.7-10.2-40.8-25.5-76.6c-17.9-48.5-43.4-66.3-89.3-66.3c-68.9,0-71.5,7.7-48.5,97c12.8,40.8,35.7,56.2,89.3,56.2C2950.7-3107.3,2983.9-3112.5,2983.9-3117.5z M3216.1-3176.2c-12.8-53.6-38.3-74-86.8-79.1c-48.5-5.1-68.9,2.5-68.9,30.6c0,79.1,33.2,117.4,102.1,117.4C3228.9-3107.3,3234-3112.5,3216.1-3176.2z M3468.7-3125.2c-2.6-91.9-35.7-135.3-107.2-135.3c-58.7,0-74,10.2-61.2,40.8c7.7,23,15.3,56.2,15.3,76.6c0,23,28.1,35.7,76.6,35.7C3435.6-3107.3,3468.7-3115,3468.7-3125.2z M3724-3117.5c0-7.7-10.2-40.8-25.5-76.6c-17.9-48.5-43.4-66.3-89.3-66.3c-68.9,0-71.5,7.7-48.5,97c12.8,40.8,35.7,56.2,89.3,56.2C3690.8-3107.3,3724-3112.5,3724-3117.5z M3953.6-3143.1c0-76.6-33.2-117.4-91.9-117.4c-45.9,0-61.2,12.8-61.2,58.7c0,76.6,17.9,94.4,94.4,94.4C3928.1-3107.3,3953.6-3122.6,3953.6-3143.1z M4208.9-3125.2c-2.6-91.9-35.7-135.3-107.2-135.3c-58.7,0-74,10.2-61.2,40.8c7.7,23,15.3,56.2,15.3,76.6c0,23,28.1,35.7,76.6,35.7C4175.7-3107.3,4208.9-3115,4208.9-3125.2z M4464.1-3117.5c0-7.7-10.2-40.8-25.5-76.6c-17.9-48.5-43.4-66.3-89.3-66.3c-63.8,0-79.1,33.2-48.5,112.3C4313.5-3112.5,4464.1-3086.9,4464.1-3117.5z M4693.7-3143.1c0-76.6-33.2-117.4-91.9-117.4c-45.9,0-61.2,12.8-61.2,58.7c0,76.6,17.9,94.4,94.4,94.4C4668.2-3107.3,4693.7-3122.6,4693.7-3143.1z M4949-3143.1c0-81.6-33.2-117.4-107.2-117.4c-58.7,0-74,10.2-61.3,40.8c7.7,23,15.3,56.2,15.3,76.6c0,23,28.1,35.7,76.6,35.7C4920.9-3107.3,4949-3120.1,4949-3143.1z M5204.2-3125.2c-2.5-89.3-35.7-135.3-104.6-135.3c-79.1,0-81.7,5.1-58.7,97c12.8,40.8,35.7,56.2,89.3,56.2C5171-3107.3,5204.2-3115,5204.2-3125.2z M5398.1-3148.2c-7.6-23-15.3-56.2-15.3-76.6c0-20.4-23-35.7-51-35.7c-56.2,0-58.7,7.7-35.7,97c10.2,33.2,35.7,56.2,66.4,56.2C5398.1-3107.3,5408.3-3120.1,5398.1-3148.2z M5546.2-3189c12.8-53.6,7.7-71.4-23-71.4c-38.3,0-56.2,102.1-20.4,135.3C5523.2-3102.2,5525.7-3104.8,5546.2-3189z M5740.1-3143.1c0-20.4,7.7-56.1,15.3-79.1c12.8-33.2,5.1-40.8-43.4-33.2c-84.2,10.2-107.2,148-25.5,148C5717.1-3107.3,5740.1-3122.6,5740.1-3143.1z M5990.2-3189c7.6-61.2,0-71.4-53.6-71.4c-61.3,0-94.4,40.8-94.4,117.4c0,28.1,20.4,35.7,71.5,30.6C5967.2-3117.5,5985.1-3135.4,5990.2-3189z M6225-3125.2c0-12.8,7.7-45.9,15.3-76.6c12.8-51,5.1-58.7-51-58.7c-48.5,0-74,17.9-91.9,66.3c-15.3,35.7-25.5,68.9-25.5,76.6C6071.9-3099.7,6225-3107.3,6225-3125.2z M6464.9-3148.2c30.6-79.1,15.3-112.3-48.5-112.3c-35.7,0-63.8,7.7-63.8,20.4c0,10.2-7.6,43.4-15.3,76.6c-12.8,45.9-5.1,56.2,48.5,56.2C6421.5-3107.3,6457.2-3125.2,6464.9-3148.2z M6735.4-3125.2c0-12.8,7.7-45.9,15.3-76.6c15.3-53.6,7.7-58.7-76.6-58.7c-51,0-91.9,7.7-91.9,20.4c0,10.2-7.6,43.4-15.3,76.6c-15.3,51-7.7,56.2,76.6,56.2C6694.6-3107.3,6735.4-3115,6735.4-3125.2z M1478.1-3398.3c0-63.8-30.6-117.4-66.4-117.4c-40.8,0-40.8,12.8-20.4,97C1409.2-3357.4,1478.1-3339.6,1478.1-3398.3z M1684.8-3431.5c-12.8-48.5-38.3-74-79.1-79.1c-45.9-7.7-53.6,0-40.8,33.2c7.7,23,15.3,58.7,15.3,79.1c0,20.4,25.5,35.7,61.2,35.7C1697.6-3362.5,1700.2-3370.2,1684.8-3431.5z M1914.5-3431.5c-12.8-53.6-38.3-74-91.9-79.1c-56.2-7.7-68.9,0-53.6,33.2c7.7,23,15.3,58.7,15.3,79.1c0,23,28.1,35.7,74,35.7C1927.3-3362.5,1932.4-3367.6,1914.5-3431.5z M2167.2-3398.3c0-76.6-33.2-117.4-91.9-117.4c-45.9,0-61.2,12.8-61.2,58.7c0,76.6,17.9,94.4,94.4,94.4C2141.7-3362.5,2167.2-3377.8,2167.2-3398.3z M2422.4-3372.8c0-7.7-10.2-40.8-25.5-76.6c-17.9-48.5-43.4-66.3-89.3-66.3c-68.9,0-71.5,7.7-48.5,97c12.8,40.9,35.7,56.2,89.3,56.2C2389.2-3362.5,2422.4-3367.6,2422.4-3372.8z M2654.6-3431.5c-12.8-53.6-38.3-74-86.8-79.1c-48.5-5.1-68.9,2.5-68.9,30.6c0,79.1,33.2,117.4,102.1,117.4C2667.4-3362.5,2672.5-3367.6,2654.6-3431.5z M2907.3-3380.4c-2.6-89.3-35.7-135.3-104.6-135.3c-84.2,0-81.7,0-48.5,86.8c17.9,48.5,43.4,66.3,89.3,66.3C2879.2-3362.5,2907.3-3370.2,2907.3-3380.4z M3162.5-3372.8c0-7.7-10.2-40.8-25.5-76.6c-17.9-48.5-43.4-66.3-89.3-66.3c-68.9,0-71.5,7.7-48.5,97c12.8,40.9,35.7,56.2,89.3,56.2C3129.3-3362.5,3162.5-3367.6,3162.5-3372.8z M3389.6-3439.1c-20.4-56.2-43.4-76.6-89.3-76.6c-61.3,0-76.6,35.7-45.9,112.3c10.2,22.9,45.9,40.8,89.3,40.8C3412.6-3362.5,3415.2-3365.1,3389.6-3439.1z M3647.4-3380.4c-2.6-91.9-35.7-135.3-107.2-135.3c-58.7,0-74,10.2-61.3,40.8c7.7,23,15.3,56.2,15.3,76.6c0,23,28.1,35.7,76.6,35.7C3614.2-3362.5,3647.4-3370.2,3647.4-3380.4z M3902.6-3372.8c0-7.7-10.2-40.8-25.5-76.6c-17.9-48.5-43.4-66.3-89.3-66.3c-68.9,0-71.5,7.7-48.5,97c12.8,40.9,35.7,56.2,89.3,56.2C3869.4-3362.5,3902.6-3367.6,3902.6-3372.8z M4132.3-3398.3c0-76.6-33.2-117.4-91.9-117.4c-45.9,0-61.3,12.8-61.3,58.7c0,76.6,17.9,94.4,94.4,94.4C4106.8-3362.5,4132.3-3377.8,4132.3-3398.3z M4387.5-3390.6c0-63.8-56.2-125.1-117.4-125.1c-51,0-63.8,10.2-51,40.8c7.7,23,15.3,56.2,15.3,76.6c0,23,28.1,35.7,76.6,35.7C4354.3-3362.5,4387.5-3375.3,4387.5-3390.6z M4619.7-3431.5c-12.8-53.6-38.3-74-86.8-79.1c-48.5-5.1-68.9,2.5-68.9,30.6c0,79.1,33.2,117.4,102.1,117.4C4632.5-3362.5,4637.6-3367.6,4619.7-3431.5z M4875-3431.5c-12.8-53.6-38.3-74-86.8-79.1c-58.7-7.7-68.9,2.5-68.9,53.6c0,76.6,17.9,94.4,104.6,94.4C4887.7-3362.5,4892.8-3367.6,4875-3431.5z M5130.1-3431.5c-15.3-56.2-35.7-74-99.5-79.1c-91.9-10.2-91.9-7.7-56.1,81.7c17.9,51.1,43.4,66.3,99.5,66.3C5142.9-3362.5,5148-3367.6,5130.1-3431.5z M5357.3-3380.4c-2.5-84.2-38.3-135.3-94.4-135.3c-48.5,0-61.2,10.2-48.5,40.8c7.6,23,15.3,56.2,15.3,76.6c0,20.4,25.5,35.7,63.8,35.7C5329.2-3362.5,5357.3-3370.2,5357.3-3380.4z M5592.1-3426.3c15.3-76.6,5.1-89.3-86.8-89.3c-71.5,0-86.8,30.6-56.2,112.3C5474.7-3337,5579.3-3352.3,5592.1-3426.3z M5811.6-3446.7c7.6-63.8,0-71.5-51-63.8c-43.4,5.1-61.2,28.1-66.3,79.1c-7.6,63.8,0,71.4,51,63.8C5788.6-3372.8,5806.4-3395.7,5811.6-3446.7z M6056.6-3403.4c30.6-79.1,15.3-112.3-48.5-112.3c-45.9,0-71.4,17.9-89.3,66.3c-33.2,86.8-35.7,86.8,48.5,86.8C6010.6-3362.5,6046.3-3377.8,6056.6-3403.4z M6301.6-3398.3c0-20.4,7.7-53.6,15.3-76.6c23-61.2-109.7-53.6-142.9,7.7c-40.8,81.7-30.6,104.6,51,104.6C6273.5-3362.5,6301.6-3375.3,6301.6-3398.3z M6531.2-3380.4c0-12.8,7.7-45.9,15.3-76.6c12.8-48.5,5.1-58.7-48.5-58.7c-48.5,0-71.5,17.9-91.9,76.6c-25.5,74-23,76.6,51,76.6C6498.1-3362.5,6531.2-3370.2,6531.2-3380.4z M6812-3428.9c35.7-89.3,35.7-86.8-61.3-86.8c-56.1,0-91.9,15.3-102.1,40.8c-33.2,84.2-15.3,112.3,61.3,112.3C6771.2-3362.5,6794.1-3377.8,6812-3428.9z M1427.1-3630.5c0-38.3-66.4-81.7-91.9-58.7c-5.1,7.7-5.1,33.2,5.1,56.2C1360.7-3582,1427.1-3579.5,1427.1-3630.5z M1631.2-3628c0-20.4-12.8-45.9-25.5-53.6c-43.4-28.1-102.1,7.7-86.8,51C1539.4-3582,1631.2-3579.5,1631.2-3628z M1855.8-3635.6c-10.2-56.2-122.5-79.1-122.5-25.5c0,48.5,25.5,68.9,81.7,68.9C1848.2-3592.2,1860.9-3607.5,1855.8-3635.6z M2098.3-3607.5c30.6-30.6-15.3-86.8-74-86.8c-58.7,0-81.7,45.9-43.4,84.2C2001.3-3587.1,2077.9-3587.1,2098.3-3607.5z M2340.7-3635.6c-5.1-28.1-35.7-48.5-79.1-53.6c-74-10.2-76.6-5.1-53.6,56.2C2231-3574.4,2350.9-3579.5,2340.7-3635.6z M2595.9-3635.6c-10.2-56.2-148-79.1-148-25.5c0,51,25.5,68.9,94.4,68.9C2588.3-3592.2,2603.6-3605,2595.9-3635.6z M2838.4-3607.5c30.6-30.6-15.3-86.8-74-86.8c-58.7,0-81.7,45.9-43.4,84.2C2741.4-3587.1,2818-3587.1,2838.4-3607.5z M3080.8-3635.6c-5.1-28.1-35.7-48.5-79.1-53.6c-74-10.2-76.6-5.1-53.6,56.2C2971.1-3574.4,3091-3579.5,3080.8-3635.6z M3336-3635.6c-10.2-56.2-148-79.1-148-25.5c0,51,25.5,68.9,94.4,68.9C3328.4-3592.2,3343.7-3605,3336-3635.6z M3578.5-3607.5c30.6-30.6-15.3-86.8-74-86.8c-58.7,0-81.7,45.9-43.4,84.2C3481.5-3587.1,3558.1-3587.1,3578.5-3607.5z M3820.9-3635.6c-10.2-56.2-148-79.1-148-25.5c0,51,25.5,68.9,94.4,68.9C3813.3-3592.2,3828.6-3605,3820.9-3635.6z M4076.1-3635.6c-10.2-56.2-148-79.1-148-25.5c0,51,25.5,68.9,94.4,68.9C4068.5-3592.2,4083.8-3605,4076.1-3635.6z M4310.9-3630.5c0-23-17.9-45.9-38.3-53.6c-58.7-23-114.8,7.7-99.5,53.6C4193.5-3579.5,4310.9-3579.5,4310.9-3630.5z M4561-3635.6c-10.2-56.2-148-79.1-148-25.5c0,51,25.5,68.9,94.4,68.9C4553.4-3592.2,4568.7-3605,4561-3635.6z M4816.2-3635.6c-10.2-56.2-148-79.1-148-25.5c0,51,25.5,68.9,94.4,68.9C4808.6-3592.2,4823.9-3605,4816.2-3635.6z M5071.5-3635.6c-10.2-56.2-148-79.1-148-25.5c0,51,25.5,68.9,94.4,68.9C5063.8-3592.2,5079.1-3605,5071.5-3635.6z M5301.1-3635.6c-10.2-56.2-122.5-79.1-122.5-25.5c0,48.5,25.5,68.9,81.7,68.9C5293.5-3592.2,5306.2-3607.5,5301.1-3635.6z M5632.9-3648.4c7.7-38.3-10.2-45.9-107.2-45.9c-102.1,0-117.4,7.6-117.4,53.6c0,46,12.8,51,107.2,43.4C5594.6-3602.5,5627.8-3617.7,5632.9-3648.4z M5862.6-3648.4c7.7-33.2-7.7-45.9-56.2-45.9c-51,0-66.3,12.8-66.3,53.6c0,38.3,12.8,51,56.2,43.4C5829.4-3602.5,5857.5-3625.4,5862.6-3648.4z M6117.8-3650.9c7.6-38.3-5.1-45.9-63.8-38.3c-43.4,5.1-74,25.5-79.1,53.6c-7.7,38.3,5.1,45.9,63.8,38.3C6082.1-3602.5,6112.7-3622.9,6117.8-3650.9z M6360.3-3628c17.9-48.5-2.5-66.3-76.6-66.3c-40.8,0-58.7,15.3-58.7,51s17.9,51,61.3,51C6319.4-3592.2,6352.6-3607.5,6360.3-3628z M6582.3-3602.5c0-5.1,7.7-30.6,15.3-53.6c15.3-33.2,2.6-40.8-56.1-33.2c-97,10.2-120,97-25.5,97C6551.7-3592.2,6582.3-3597.3,6582.3-3602.5z M6857.9-3648.4c7.7-35.7-7.7-45.9-66.3-45.9c-71.4,0-122.5,51-86.8,86.8C6738-3574.4,6850.3-3605,6857.9-3648.4z"/><path d="M508.3,3298.4v-178.6h829.4h829.4v178.6V3477h-829.4H508.3V3298.4z M2075.3,3385.2c51-51,51-122.5,0-173.5c-51-53.6-109.7-51-168.4,2.6c-56.1,51-58.7,104.6-2.5,165.9C1955.4,3436.2,2021.7,3438.8,2075.3,3385.2z M1758.9,3298.4c0-51-12.8-51-579.3-45.9c-530.8,7.7-581.9,12.8-589.5,53.6c-7.7,40.8,33.2,43.4,579.3,43.4C1743.5,3349.4,1758.9,3346.9,1758.9,3298.4z"/><path d="M1940.1,3341.8c-20.4-25.5-17.9-48.5,10.2-84.2c33.2-45.9,38.3-45.9,79.1-5.1c35.7,35.7,38.3,51,10.2,81.7C2001.3,3382.6,1978.3,3385.2,1940.1,3341.8z"/><path d="M1044.3,452.8V-555.3h306.3h306.3V452.8v1008.1h-306.3h-306.3V452.8z M1442.4,1167.4c38.3-58.7,38.3-68.9,0-127.6c-71.5-109.7-219.5-58.7-219.5,76.6C1222.9,1233.8,1376,1269.5,1442.4,1167.4z M1439.8,480.9c45.9-68.9,28.1-132.7-43.4-171c-107.2-58.7-229.7,114.8-142.9,201.6C1304.6,562.6,1396.5,547.3,1439.8,480.9z M1437.3-187.7c48.5-48.5,51-89.3,10.2-142.9c-51-61.2-112.3-71.5-171-30.6c-58.7,43.4-71.5,135.3-23,183.8C1296.9-134.2,1391.4-139.3,1437.3-187.7z"/><path d="M1299.5,1154.6c-30.6-17.9-30.6-33.2-10.2-68.9c40.8-66.3,99.5-56.1,99.5,15.3C1388.8,1170,1355.6,1190.4,1299.5,1154.6z"/><path d="M1284.2,455.4c-20.4-53.6,7.7-91.9,68.9-91.9c38.3,0,51,15.3,43.4,56.2C1386.2,488.5,1307.1,514.1,1284.2,455.4z"/><path d="M1284.2-233.7c-20.4-53.6,7.7-91.9,68.9-91.9c38.3,0,51,15.3,43.4,56.2C1386.2-200.5,1307.1-175,1284.2-233.7z"/><path d="M2907.3,1856.5V-376.6h3496.4H9900v2233.1v2233.1H6403.7H2907.3V1856.5z M9695.8,1869.2V-172.4l-3297.3,5.1l-3299.8,7.7l-7.7,2003.4c-2.6,1102.5,0,2018.7,7.7,2036.6c7.7,23,694.2,30.6,3305,30.6h3292.2V1869.2z"/><path d="M3239.1,1869.2V-95.9h3164.6h3164.6v1965.1v1965.1H6403.7H3239.1V1869.2z"/><path d="M4910.7-912.5l-165.9-331.8h1646.1c906,0,1646.1,7.6,1646.1,20.4c0,10.2-71.4,158.2-158.2,329.2L7718-580.8H6398.5h-1322L4910.7-912.5z"/></g></g>
</svg>