<?xml version="1.0" encoding="utf-8"?>
<!-- Svg Vector Icons : http://www.onlinewebfonts.com/icon -->
<!DOCTYPE svg PUBLIC "-//W3C//DTD SVG 1.1//EN" "http://www.w3.org/Graphics/SVG/1.1/DTD/svg11.dtd">
<svg version="1.1" xmlns="http://www.w3.org/2000/svg" xmlns:xlink="http://www.w3.org/1999/xlink" x="0px" y="0px" viewBox="0 0 1000 1000" enable-background="new 0 0 1000 1000" xml:space="preserve">
<metadata> Svg Vector Icons : http://www.onlinewebfonts.com/icon </metadata>
<g><g transform="translate(0.000000,512.000000) scale(0.100000,-0.100000)"><path d="M1426.4,4994.8c-350.3-86.1-635.5-394.3-698.6-754.1c-99.5-585.7,453.6-1140.8,1037.4-1041.3c497.7,86.1,851.8,562.7,769.5,1041.3C2444.7,4761.3,1926,5115.4,1426.4,4994.8z"/><path d="M1127.9,2544.8c-193.3-53.6-354.1-222-394.3-413.4c-15.3-67-21.1-694.8-21.1-1971.5v-1875.8h1225h1223.1l5.7-1316.9c5.7-1290.1,5.7-1316.9,45.9-1403c59.3-126.3,149.3-218.2,271.8-279.5c95.7-47.9,130.2-53.6,290.9-53.6c160.8,0,195.2,5.7,290.9,53.6c122.5,61.3,212.5,153.1,271.8,279.5c40.2,88,40.2,99.5,40.2,1801.1v1713.1l-53.6,109.1C4263.1-690,4171.2-600,4044.9-540.7c-86.1,38.3-116.8,40.2-1096.8,45.9L1937.5-489v304.3v306.3h765.6h765.6V-31.6v-153.1h1684.4h1684.4v-2143.7v-2143.7h-306.3H6225v-153.1v-153.1h765.6h765.6v153.1v153.1H7450h-306.3v2143.7v2143.7h1378.1H9900v153.1v153.1H8368.7H6837.5v1225v1225h-153.1h-153.1V1499.7V427.8h-918.8h-918.8V274.7V121.6l-405.8,1.9c-371.3,0-400,3.8-315.8,24.9c275.6,74.6,438.3,338.8,407.7,660.4c-21.1,225.9-137.8,396.2-335,488.1c-86.1,38.3-116.8,40.2-1096.8,45.9l-1006.8,5.7l-7.7,396.2c-7.7,438.3-19.1,493.8-147.4,641.2C1652.3,2537.1,1355.6,2609.9,1127.9,2544.8z"/><path d="M100-1715.9v-3062.5h153.1h153.1v1225v1225h1071.9H2550v-1225v-1225h153.1h153.1v1378.1v1378.1h-1225h-1225v1684.4v1684.4H253.1H100V-1715.9z"/></g></g>
</svg>